STARTFONT 2.1
FONT -Adobe-ITC Lubalin Graph-Book-O-Normal--8-80-75-75-P-50-ISO8859-1
SIZE 8 75 75
FONTBOUNDINGBOX 14 11 -2 -2

STARTPROPERTIES 30
FOUNDRY "Adobe"
FAMILY_NAME "ITC Lubalin Graph"
WEIGHT_NAME "Book"
SLANT "O"
SETWIDTH_NAME "Normal"
ADD_STYLE_NAME ""
PIXEL_SIZE 8
POINT_SIZE 80
RESOLUTION_X 75
RESOLUTION_Y 75
SPACING "P"
AVERAGE_WIDTH 50
CHARSET_REGISTRY "ISO8859"
CHARSET_ENCODING "1"
CAP_HEIGHT 6
X_HEIGHT 5
FACE_NAME "ITC Lubalin Graph Book Oblique"
COPYRIGHT "Copyright (c) 1984, 1987 Adobe Systems Incorporated. All Rights Reserved. Copyright (c) 1988, 1991 Digital Equipment Corporation. All Rights Reserved."
NOTICE "ITC Lubalin Graph is a registered trademark of International Typeface Corporation."
_DEC_DEVICE_FONTNAMES "PS=LubalinGraph-BookOblique"
_DEC_PRODUCTINFO "DECwindows Fonts V2.2, 07-Nov-1991"
RELATIVE_SETWIDTH 50
RELATIVE_WEIGHT 40
CHARSET_COLLECTIONS "ASCII ISO8859-1 ADOBE-STANDARD"
FULL_NAME "ITC Lubalin Graph Book Oblique"
WEIGHT 10
QUAD_WIDTH 5
DEFAULT_CHAR 32
FONT_DESCENT 2
FONT_ASCENT 8
ENDPROPERTIES

CHARS 191

STARTCHAR space
ENCODING 32
SWIDTH 300 0
DWIDTH 2 0
BBX 1 1 0 0
BITMAP
00
ENDCHAR

STARTCHAR exclam
ENCODING 33
SWIDTH 140 0
DWIDTH 2 0
BBX 2 6 1 0
BITMAP
40
40
40
80
00
80
ENDCHAR

STARTCHAR quotedbl
ENCODING 34
SWIDTH 280 0
DWIDTH 3 0
BBX 3 2 1 4
BITMAP
A0
A0
ENDCHAR

STARTCHAR numbersign
ENCODING 35
SWIDTH 580 0
DWIDTH 6 0
BBX 6 5 0 1
BITMAP
28
7C
30
F8
50
ENDCHAR

STARTCHAR dollar
ENCODING 36
SWIDTH 580 0
DWIDTH 5 0
BBX 5 8 0 -1
BITMAP
10
38
50
60
30
D0
E0
40
ENDCHAR

STARTCHAR percent
ENCODING 37
SWIDTH 800 0
DWIDTH 7 0
BBX 6 6 1 0
BITMAP
68
B0
D0
2C
54
58
ENDCHAR

STARTCHAR ampersand
ENCODING 38
SWIDTH 720 0
DWIDTH 7 0
BBX 7 6 0 0
BITMAP
10
28
32
7C
94
62
ENDCHAR

STARTCHAR quoteright
ENCODING 39
SWIDTH 200 0
DWIDTH 2 0
BBX 2 2 1 4
BITMAP
40
80
ENDCHAR

STARTCHAR parenleft
ENCODING 40
SWIDTH 340 0
DWIDTH 3 0
BBX 3 7 0 -1
BITMAP
20
40
40
80
80
80
40
ENDCHAR

STARTCHAR parenright
ENCODING 41
SWIDTH 340 0
DWIDTH 4 0
BBX 2 7 1 -1
BITMAP
80
40
40
40
40
80
80
ENDCHAR

STARTCHAR asterisk
ENCODING 42
SWIDTH 340 0
DWIDTH 4 0
BBX 3 3 1 4
BITMAP
A0
40
A0
ENDCHAR

STARTCHAR plus
ENCODING 43
SWIDTH 660 0
DWIDTH 6 0
BBX 5 5 1 0
BITMAP
20
20
F8
40
40
ENDCHAR

STARTCHAR comma
ENCODING 44
SWIDTH 300 0
DWIDTH 2 0
BBX 2 3 0 -2
BITMAP
40
40
80
ENDCHAR

STARTCHAR minus
ENCODING 45
SWIDTH 660 0
DWIDTH 6 0
BBX 4 1 1 2
BITMAP
F0
ENDCHAR

STARTCHAR period
ENCODING 46
SWIDTH 300 0
DWIDTH 2 0
BBX 1 1 1 0
BITMAP
80
ENDCHAR

STARTCHAR slash
ENCODING 47
SWIDTH 580 0
DWIDTH 5 0
BBX 6 7 -1 -1
BITMAP
04
08
10
20
20
40
80
ENDCHAR

STARTCHAR zero
ENCODING 48
SWIDTH 580 0
DWIDTH 5 0
BBX 5 6 0 0
BITMAP
30
48
88
88
90
60
ENDCHAR

STARTCHAR one
ENCODING 49
SWIDTH 580 0
DWIDTH 5 0
BBX 3 6 1 0
BITMAP
60
20
20
40
40
E0
ENDCHAR

STARTCHAR two
ENCODING 50
SWIDTH 580 0
DWIDTH 5 0
BBX 5 6 0 0
BITMAP
30
48
10
20
50
F0
ENDCHAR

STARTCHAR three
ENCODING 51
SWIDTH 580 0
DWIDTH 5 0
BBX 5 6 0 0
BITMAP
30
48
30
10
90
60
ENDCHAR

STARTCHAR four
ENCODING 52
SWIDTH 580 0
DWIDTH 5 0
BBX 5 6 0 0
BITMAP
10
30
50
F8
20
70
ENDCHAR

STARTCHAR five
ENCODING 53
SWIDTH 580 0
DWIDTH 5 0
BBX 5 6 0 0
BITMAP
78
40
60
10
90
60
ENDCHAR

STARTCHAR six
ENCODING 54
SWIDTH 580 0
DWIDTH 5 0
BBX 4 6 0 0
BITMAP
30
40
E0
90
90
60
ENDCHAR

STARTCHAR seven
ENCODING 55
SWIDTH 580 0
DWIDTH 5 0
BBX 4 6 1 0
BITMAP
F0
10
20
40
80
80
ENDCHAR

STARTCHAR eight
ENCODING 56
SWIDTH 580 0
DWIDTH 5 0
BBX 5 6 0 0
BITMAP
30
48
70
90
90
60
ENDCHAR

STARTCHAR nine
ENCODING 57
SWIDTH 580 0
DWIDTH 5 0
BBX 4 6 1 0
BITMAP
60
90
90
60
40
80
ENDCHAR

STARTCHAR colon
ENCODING 58
SWIDTH 300 0
DWIDTH 2 0
BBX 2 4 1 0
BITMAP
40
00
00
80
ENDCHAR

STARTCHAR semicolon
ENCODING 59
SWIDTH 300 0
DWIDTH 2 0
BBX 3 6 0 -2
BITMAP
20
00
00
40
40
80
ENDCHAR

STARTCHAR less
ENCODING 60
SWIDTH 660 0
DWIDTH 6 0
BBX 6 4 0 1
BITMAP
0C
30
E0
18
ENDCHAR

STARTCHAR equal
ENCODING 61
SWIDTH 660 0
DWIDTH 6 0
BBX 5 3 1 1
BITMAP
78
00
F0
ENDCHAR

STARTCHAR greater
ENCODING 62
SWIDTH 660 0
DWIDTH 6 0
BBX 6 4 0 1
BITMAP
60
1C
30
C0
ENDCHAR

STARTCHAR question
ENCODING 63
SWIDTH 520 0
DWIDTH 5 0
BBX 4 6 1 0
BITMAP
60
90
20
40
00
40
ENDCHAR

STARTCHAR at
ENCODING 64
SWIDTH 900 0
DWIDTH 7 0
BBX 7 7 0 0
BITMAP
38
44
9A
AA
BC
40
3C
ENDCHAR

STARTCHAR A
ENCODING 65
SWIDTH 820 0
DWIDTH 6 0
BBX 7 6 0 0
BITMAP
38
18
28
7C
44
EE
ENDCHAR

STARTCHAR B
ENCODING 66
SWIDTH 580 0
DWIDTH 5 0
BBX 5 6 0 0
BITMAP
78
28
30
48
48
F0
ENDCHAR

STARTCHAR C
ENCODING 67
SWIDTH 740 0
DWIDTH 6 0
BBX 6 6 0 0
BITMAP
3C
44
80
80
88
70
ENDCHAR

STARTCHAR D
ENCODING 68
SWIDTH 720 0
DWIDTH 6 0
BBX 6 6 0 0
BITMAP
78
24
24
44
48
F0
ENDCHAR

STARTCHAR E
ENCODING 69
SWIDTH 560 0
DWIDTH 5 0
BBX 5 6 0 0
BITMAP
78
20
30
40
50
F0
ENDCHAR

STARTCHAR F
ENCODING 70
SWIDTH 560 0
DWIDTH 5 0
BBX 5 6 0 0
BITMAP
78
20
30
40
40
E0
ENDCHAR

STARTCHAR G
ENCODING 71
SWIDTH 780 0
DWIDTH 6 0
BBX 6 6 0 0
BITMAP
3C
44
80
9C
8C
74
ENDCHAR

STARTCHAR H
ENCODING 72
SWIDTH 720 0
DWIDTH 6 0
BBX 7 6 0 0
BITMAP
66
24
3C
48
48
CC
ENDCHAR

STARTCHAR I
ENCODING 73
SWIDTH 300 0
DWIDTH 3 0
BBX 4 6 0 0
BITMAP
70
20
20
40
40
E0
ENDCHAR

STARTCHAR J
ENCODING 74
SWIDTH 520 0
DWIDTH 4 0
BBX 5 6 0 0
BITMAP
38
10
10
20
A0
40
ENDCHAR

STARTCHAR K
ENCODING 75
SWIDTH 700 0
DWIDTH 6 0
BBX 6 6 0 0
BITMAP
6C
30
20
70
48
EC
ENDCHAR

STARTCHAR L
ENCODING 76
SWIDTH 520 0
DWIDTH 4 0
BBX 4 6 0 0
BITMAP
70
20
20
40
50
F0
ENDCHAR

STARTCHAR M
ENCODING 77
SWIDTH 980 0
DWIDTH 8 0
BBX 8 6 0 0
BITMAP
63
22
36
5A
52
D7
ENDCHAR

STARTCHAR N
ENCODING 78
SWIDTH 800 0
DWIDTH 6 0
BBX 7 6 0 0
BITMAP
66
22
32
54
4C
EC
ENDCHAR

STARTCHAR O
ENCODING 79
SWIDTH 800 0
DWIDTH 6 0
BBX 7 6 0 0
BITMAP
3C
42
82
82
84
78
ENDCHAR

STARTCHAR P
ENCODING 80
SWIDTH 580 0
DWIDTH 5 0
BBX 5 6 0 0
BITMAP
70
28
28
70
40
E0
ENDCHAR

STARTCHAR Q
ENCODING 81
SWIDTH 860 0
DWIDTH 7 0
BBX 7 6 0 0
BITMAP
3C
42
82
E2
9C
76
ENDCHAR

STARTCHAR R
ENCODING 82
SWIDTH 640 0
DWIDTH 5 0
BBX 5 6 0 0
BITMAP
70
28
28
70
50
D8
ENDCHAR

STARTCHAR S
ENCODING 83
SWIDTH 500 0
DWIDTH 5 0
BBX 5 6 0 0
BITMAP
38
48
60
30
90
E0
ENDCHAR

STARTCHAR T
ENCODING 84
SWIDTH 540 0
DWIDTH 5 0
BBX 5 6 1 0
BITMAP
F8
A0
20
40
40
C0
ENDCHAR

STARTCHAR U
ENCODING 85
SWIDTH 700 0
DWIDTH 6 0
BBX 6 6 1 0
BITMAP
CC
48
48
90
90
60
ENDCHAR

STARTCHAR V
ENCODING 86
SWIDTH 780 0
DWIDTH 6 0
BBX 6 6 1 0
BITMAP
CC
48
48
70
20
20
ENDCHAR

STARTCHAR W
ENCODING 87
SWIDTH 1040 0
DWIDTH 9 0
BBX 9 6 1 0
BITMAP
EB80
4900
5A00
5A00
2400
2400
ENDCHAR

STARTCHAR X
ENCODING 88
SWIDTH 740 0
DWIDTH 6 0
BBX 7 6 0 0
BITMAP
6E
28
10
30
48
EC
ENDCHAR

STARTCHAR Y
ENCODING 89
SWIDTH 680 0
DWIDTH 6 0
BBX 6 6 1 0
BITMAP
CC
48
50
20
20
70
ENDCHAR

STARTCHAR Z
ENCODING 90
SWIDTH 520 0
DWIDTH 5 0
BBX 6 6 0 0
BITMAP
7C
48
10
20
48
F8
ENDCHAR

STARTCHAR bracketleft
ENCODING 91
SWIDTH 300 0
DWIDTH 3 0
BBX 4 7 0 -1
BITMAP
30
20
40
40
40
80
C0
ENDCHAR

STARTCHAR backslash
ENCODING 92
SWIDTH 580 0
DWIDTH 4 0
BBX 3 6 1 0
BITMAP
80
80
40
40
20
20
ENDCHAR

STARTCHAR bracketright
ENCODING 93
SWIDTH 300 0
DWIDTH 3 0
BBX 3 7 0 -1
BITMAP
60
20
20
40
40
40
C0
ENDCHAR

STARTCHAR asciicircum
ENCODING 94
SWIDTH 660 0
DWIDTH 6 0
BBX 4 4 1 2
BITMAP
20
20
60
90
ENDCHAR

STARTCHAR underscore
ENCODING 95
SWIDTH 500 0
DWIDTH 4 0
BBX 5 1 -1 -1
BITMAP
F8
ENDCHAR

STARTCHAR quoteleft
ENCODING 96
SWIDTH 200 0
DWIDTH 2 0
BBX 2 1 1 5
BITMAP
C0
ENDCHAR

STARTCHAR a
ENCODING 97
SWIDTH 660 0
DWIDTH 5 0
BBX 6 5 0 0
BITMAP
2C
58
90
B0
58
ENDCHAR

STARTCHAR b
ENCODING 98
SWIDTH 660 0
DWIDTH 6 0
BBX 6 7 0 0
BITMAP
60
20
28
34
44
68
D0
ENDCHAR

STARTCHAR c
ENCODING 99
SWIDTH 560 0
DWIDTH 5 0
BBX 5 5 0 0
BITMAP
38
48
80
90
60
ENDCHAR

STARTCHAR d
ENCODING 100
SWIDTH 660 0
DWIDTH 5 0
BBX 5 7 0 0
BITMAP
18
08
28
50
90
90
68
ENDCHAR

STARTCHAR e
ENCODING 101
SWIDTH 580 0
DWIDTH 5 0
BBX 5 5 0 0
BITMAP
30
48
F8
80
70
ENDCHAR

STARTCHAR f
ENCODING 102
SWIDTH 300 0
DWIDTH 3 0
BBX 4 7 0 0
BITMAP
10
20
70
20
40
40
E0
ENDCHAR

STARTCHAR g
ENCODING 103
SWIDTH 660 0
DWIDTH 5 0
BBX 6 7 0 -2
BITMAP
2C
58
90
B0
50
10
E0
ENDCHAR

STARTCHAR h
ENCODING 104
SWIDTH 640 0
DWIDTH 6 0
BBX 6 7 0 0
BITMAP
60
20
38
24
6C
48
CC
ENDCHAR

STARTCHAR i
ENCODING 105
SWIDTH 260 0
DWIDTH 2 0
BBX 3 7 0 0
BITMAP
20
00
60
20
40
40
E0
ENDCHAR

STARTCHAR j
ENCODING 106
SWIDTH 240 0
DWIDTH 2 0
BBX 4 9 -1 -2
BITMAP
10
00
70
10
20
20
40
40
80
ENDCHAR

STARTCHAR k
ENCODING 107
SWIDTH 580 0
DWIDTH 5 0
BBX 5 7 0 0
BITMAP
60
20
28
30
60
50
D8
ENDCHAR

STARTCHAR l
ENCODING 108
SWIDTH 280 0
DWIDTH 2 0
BBX 3 7 0 0
BITMAP
60
20
20
40
40
40
E0
ENDCHAR

STARTCHAR m
ENCODING 109
SWIDTH 980 0
DWIDTH 7 0
BBX 7 5 0 0
BITMAP
74
2A
6A
52
D6
ENDCHAR

STARTCHAR n
ENCODING 110
SWIDTH 660 0
DWIDTH 6 0
BBX 6 5 0 0
BITMAP
78
24
6C
48
CC
ENDCHAR

STARTCHAR o
ENCODING 111
SWIDTH 580 0
DWIDTH 5 0
BBX 5 5 0 0
BITMAP
30
48
88
90
60
ENDCHAR

STARTCHAR p
ENCODING 112
SWIDTH 660 0
DWIDTH 5 0
BBX 6 7 -1 -2
BITMAP
38
24
24
48
70
40
E0
ENDCHAR

STARTCHAR q
ENCODING 113
SWIDTH 660 0
DWIDTH 5 0
BBX 6 7 0 -2
BITMAP
2C
58
88
90
70
20
70
ENDCHAR

STARTCHAR r
ENCODING 114
SWIDTH 360 0
DWIDTH 3 0
BBX 5 5 0 0
BITMAP
68
30
60
40
E0
ENDCHAR

STARTCHAR s
ENCODING 115
SWIDTH 420 0
DWIDTH 4 0
BBX 5 5 0 0
BITMAP
38
40
70
90
E0
ENDCHAR

STARTCHAR t
ENCODING 116
SWIDTH 320 0
DWIDTH 3 0
BBX 3 7 1 0
BITMAP
40
40
E0
40
80
80
40
ENDCHAR

STARTCHAR u
ENCODING 117
SWIDTH 640 0
DWIDTH 5 0
BBX 5 5 0 0
BITMAP
D8
48
D8
90
68
ENDCHAR

STARTCHAR v
ENCODING 118
SWIDTH 640 0
DWIDTH 5 0
BBX 6 5 0 0
BITMAP
CC
48
50
20
20
ENDCHAR

STARTCHAR w
ENCODING 119
SWIDTH 900 0
DWIDTH 6 0
BBX 7 5 0 0
BITMAP
D6
52
6C
48
48
ENDCHAR

STARTCHAR x
ENCODING 120
SWIDTH 600 0
DWIDTH 4 0
BBX 5 5 0 0
BITMAP
C8
50
20
50
98
ENDCHAR

STARTCHAR y
ENCODING 121
SWIDTH 640 0
DWIDTH 5 0
BBX 6 6 0 -1
BITMAP
CC
48
70
20
20
70
ENDCHAR

STARTCHAR z
ENCODING 122
SWIDTH 420 0
DWIDTH 4 0
BBX 4 5 1 0
BITMAP
F0
20
40
90
F0
ENDCHAR

STARTCHAR braceleft
ENCODING 123
SWIDTH 300 0
DWIDTH 3 0
BBX 3 8 0 -2
BITMAP
20
20
40
40
80
40
40
40
ENDCHAR

STARTCHAR bar
ENCODING 124
SWIDTH 660 0
DWIDTH 6 0
BBX 2 6 2 0
BITMAP
40
40
40
80
80
80
ENDCHAR

STARTCHAR braceright
ENCODING 125
SWIDTH 300 0
DWIDTH 3 0
BBX 3 8 0 -2
BITMAP
40
40
40
20
40
40
80
80
ENDCHAR

STARTCHAR asciitilde
ENCODING 126
SWIDTH 660 0
DWIDTH 6 0
BBX 5 2 1 2
BITMAP
68
B0
ENDCHAR

STARTCHAR space
ENCODING 160
SWIDTH 300 0
DWIDTH 2 0
BBX 1 1 0 0
BITMAP
00
ENDCHAR

STARTCHAR exclamdown
ENCODING 161
SWIDTH 140 0
DWIDTH 2 0
BBX 3 7 0 -2
BITMAP
20
00
40
40
40
80
80
ENDCHAR

STARTCHAR cent
ENCODING 162
SWIDTH 580 0
DWIDTH 5 0
BBX 5 6 0 0
BITMAP
10
38
68
A0
70
20
ENDCHAR

STARTCHAR sterling
ENCODING 163
SWIDTH 640 0
DWIDTH 6 0
BBX 5 6 0 0
BITMAP
18
20
20
F0
48
F0
ENDCHAR

STARTCHAR currency
ENCODING 164
SWIDTH 560 0
DWIDTH 6 0
BBX 6 5 0 1
BITMAP
44
38
28
70
88
ENDCHAR

STARTCHAR yen
ENCODING 165
SWIDTH 740 0
DWIDTH 6 0
BBX 6 6 1 0
BITMAP
48
CC
50
F8
20
60
ENDCHAR

STARTCHAR brokenbar
ENCODING 166
SWIDTH 660 0
DWIDTH 6 0
BBX 2 6 2 0
BITMAP
40
40
00
80
80
80
ENDCHAR

STARTCHAR section
ENCODING 167
SWIDTH 440 0
DWIDTH 5 0
BBX 4 9 1 -2
BITMAP
30
40
60
90
90
60
20
A0
40
ENDCHAR

STARTCHAR dieresis
ENCODING 168
SWIDTH 340 0
DWIDTH 3 0
BBX 3 1 1 5
BITMAP
A0
ENDCHAR

STARTCHAR copyright
ENCODING 169
SWIDTH 820 0
DWIDTH 7 0
BBX 7 7 0 0
BITMAP
3C
42
9A
A2
BA
44
38
ENDCHAR

STARTCHAR ordfeminine
ENCODING 170
SWIDTH 420 0
DWIDTH 4 0
BBX 4 5 1 2
BITMAP
60
A0
70
00
E0
ENDCHAR

STARTCHAR guillemotleft
ENCODING 171
SWIDTH 320 0
DWIDTH 5 0
BBX 4 3 1 1
BITMAP
50
A0
A0
ENDCHAR

STARTCHAR logicalnot
ENCODING 172
SWIDTH 660 0
DWIDTH 6 0
BBX 5 2 1 2
BITMAP
F8
08
ENDCHAR

STARTCHAR hyphen
ENCODING 173
SWIDTH 300 0
DWIDTH 3 0
BBX 3 1 0 2
BITMAP
E0
ENDCHAR

STARTCHAR registered
ENCODING 174
SWIDTH 820 0
DWIDTH 7 0
BBX 7 7 0 0
BITMAP
3C
42
BA
AA
B2
6C
38
ENDCHAR

STARTCHAR macron
ENCODING 175
SWIDTH 460 0
DWIDTH 4 0
BBX 3 1 2 5
BITMAP
E0
ENDCHAR

STARTCHAR degree
ENCODING 176
SWIDTH 400 0
DWIDTH 3 0
BBX 3 3 1 4
BITMAP
E0
A0
E0
ENDCHAR

STARTCHAR plusminus
ENCODING 177
SWIDTH 660 0
DWIDTH 6 0
BBX 5 5 0 0
BITMAP
10
78
20
00
F8
ENDCHAR

STARTCHAR twosuperior
ENCODING 178
SWIDTH 348 0
DWIDTH 2 0
BBX 3 4 0 3
BITMAP
60
20
40
E0
ENDCHAR

STARTCHAR threesuperior
ENCODING 179
SWIDTH 348 0
DWIDTH 2 0
BBX 3 4 0 3
BITMAP
60
60
20
C0
ENDCHAR

STARTCHAR acute
ENCODING 180
SWIDTH 420 0
DWIDTH 3 0
BBX 2 2 2 5
BITMAP
40
80
ENDCHAR

STARTCHAR mu
ENCODING 181
SWIDTH 640 0
DWIDTH 5 0
BBX 6 6 -1 -1
BITMAP
6C
24
68
58
AC
80
ENDCHAR

STARTCHAR paragraph
ENCODING 182
SWIDTH 500 0
DWIDTH 6 0
BBX 5 8 1 -2
BITMAP
78
D0
D0
50
A0
A0
A0
A0
ENDCHAR

STARTCHAR periodcentered
ENCODING 183
SWIDTH 300 0
DWIDTH 2 0
BBX 1 1 1 2
BITMAP
80
ENDCHAR

STARTCHAR cedilla
ENCODING 184
SWIDTH 320 0
DWIDTH 2 0
BBX 2 2 -1 -1
BITMAP
40
C0
ENDCHAR

STARTCHAR onesuperior
ENCODING 185
SWIDTH 348 0
DWIDTH 2 0
BBX 3 4 0 3
BITMAP
C0
40
40
E0
ENDCHAR

STARTCHAR ordmasculine
ENCODING 186
SWIDTH 340 0
DWIDTH 4 0
BBX 4 5 1 2
BITMAP
70
50
70
00
E0
ENDCHAR

STARTCHAR guillemotright
ENCODING 187
SWIDTH 320 0
DWIDTH 5 0
BBX 4 3 1 1
BITMAP
50
50
A0
ENDCHAR

STARTCHAR onequarter
ENCODING 188
SWIDTH 870 0
DWIDTH 7 0
BBX 6 7 1 -1
BITMAP
C4
48
50
E8
58
BC
10
ENDCHAR

STARTCHAR onehalf
ENCODING 189
SWIDTH 870 0
DWIDTH 7 0
BBX 6 7 1 -1
BITMAP
C4
48
50
EC
24
48
9C
ENDCHAR

STARTCHAR threequarters
ENCODING 190
SWIDTH 870 0
DWIDTH 7 0
BBX 7 7 1 -1
BITMAP
E2
64
28
D4
2C
5E
88
ENDCHAR

STARTCHAR questiondown
ENCODING 191
SWIDTH 520 0
DWIDTH 5 0
BBX 4 6 0 -1
BITMAP
10
00
20
40
90
60
ENDCHAR

STARTCHAR Agrave
ENCODING 192
SWIDTH 820 0
DWIDTH 6 0
BBX 7 9 0 0
BITMAP
20
10
00
38
18
28
7C
44
EE
ENDCHAR

STARTCHAR Aacute
ENCODING 193
SWIDTH 820 0
DWIDTH 6 0
BBX 7 9 0 0
BITMAP
04
08
00
38
18
28
7C
44
EE
ENDCHAR

STARTCHAR Acircumflex
ENCODING 194
SWIDTH 820 0
DWIDTH 6 0
BBX 7 9 0 0
BITMAP
08
14
00
38
18
28
7C
44
EE
ENDCHAR

STARTCHAR Atilde
ENCODING 195
SWIDTH 820 0
DWIDTH 6 0
BBX 7 8 0 0
BITMAP
24
00
38
18
28
7C
44
EE
ENDCHAR

STARTCHAR Adieresis
ENCODING 196
SWIDTH 820 0
DWIDTH 6 0
BBX 7 9 0 0
BITMAP
10
28
10
38
18
28
7C
44
EE
ENDCHAR

STARTCHAR Aring
ENCODING 197
SWIDTH 820 0
DWIDTH 6 0
BBX 7 6 0 0
BITMAP
38
18
28
7C
44
EE
ENDCHAR

STARTCHAR AE
ENCODING 198
SWIDTH 1000 0
DWIDTH 8 0
BBX 8 6 0 0
BITMAP
1F
14
26
38
4A
EE
ENDCHAR

STARTCHAR Ccedilla
ENCODING 199
SWIDTH 740 0
DWIDTH 6 0
BBX 6 7 0 -1
BITMAP
3C
44
80
80
4C
30
60
ENDCHAR

STARTCHAR Egrave
ENCODING 200
SWIDTH 560 0
DWIDTH 5 0
BBX 5 9 0 0
BITMAP
20
10
00
78
20
30
40
50
F0
ENDCHAR

STARTCHAR Eacute
ENCODING 201
SWIDTH 560 0
DWIDTH 5 0
BBX 5 9 0 0
BITMAP
08
10
00
78
20
30
40
50
F0
ENDCHAR

STARTCHAR Ecircumflex
ENCODING 202
SWIDTH 560 0
DWIDTH 5 0
BBX 5 9 0 0
BITMAP
10
28
00
78
20
30
40
50
F0
ENDCHAR

STARTCHAR Edieresis
ENCODING 203
SWIDTH 560 0
DWIDTH 5 0
BBX 5 8 0 0
BITMAP
28
00
78
20
30
40
50
F0
ENDCHAR

STARTCHAR Igrave
ENCODING 204
SWIDTH 300 0
DWIDTH 3 0
BBX 4 9 0 0
BITMAP
40
20
00
70
20
20
40
40
E0
ENDCHAR

STARTCHAR Iacute
ENCODING 205
SWIDTH 300 0
DWIDTH 3 0
BBX 4 9 0 0
BITMAP
10
20
00
70
20
20
40
40
E0
ENDCHAR

STARTCHAR Icircumflex
ENCODING 206
SWIDTH 300 0
DWIDTH 3 0
BBX 4 9 0 0
BITMAP
20
50
00
70
20
20
40
40
E0
ENDCHAR

STARTCHAR Idieresis
ENCODING 207
SWIDTH 300 0
DWIDTH 3 0
BBX 4 8 0 0
BITMAP
50
00
70
20
20
40
40
E0
ENDCHAR

STARTCHAR Eth
ENCODING 208
SWIDTH 720 0
DWIDTH 6 0
BBX 6 6 0 0
BITMAP
78
24
74
44
48
F0
ENDCHAR

STARTCHAR Ntilde
ENCODING 209
SWIDTH 800 0
DWIDTH 6 0
BBX 7 9 0 0
BITMAP
0A
14
00
66
22
32
54
4C
EC
ENDCHAR

STARTCHAR Ograve
ENCODING 210
SWIDTH 800 0
DWIDTH 6 0
BBX 7 9 0 0
BITMAP
10
08
00
3C
42
82
82
84
78
ENDCHAR

STARTCHAR Oacute
ENCODING 211
SWIDTH 800 0
DWIDTH 6 0
BBX 7 9 0 0
BITMAP
04
08
00
3C
42
82
82
84
78
ENDCHAR

STARTCHAR Ocircumflex
ENCODING 212
SWIDTH 800 0
DWIDTH 6 0
BBX 7 9 0 0
BITMAP
08
14
00
3C
42
82
82
84
78
ENDCHAR

STARTCHAR Otilde
ENCODING 213
SWIDTH 800 0
DWIDTH 6 0
BBX 7 9 0 0
BITMAP
0A
14
00
3C
42
82
82
84
78
ENDCHAR

STARTCHAR Odieresis
ENCODING 214
SWIDTH 800 0
DWIDTH 6 0
BBX 7 8 0 0
BITMAP
14
00
3C
42
82
82
84
78
ENDCHAR

STARTCHAR multiply
ENCODING 215
SWIDTH 660 0
DWIDTH 6 0
BBX 5 4 1 1
BITMAP
48
30
60
90
ENDCHAR

STARTCHAR Oslash
ENCODING 216
SWIDTH 800 0
DWIDTH 6 0
BBX 7 8 0 -1
BITMAP
02
3C
4A
92
92
A4
78
80
ENDCHAR

STARTCHAR Ugrave
ENCODING 217
SWIDTH 700 0
DWIDTH 6 0
BBX 6 9 1 0
BITMAP
20
10
00
CC
48
48
90
90
60
ENDCHAR

STARTCHAR Uacute
ENCODING 218
SWIDTH 700 0
DWIDTH 6 0
BBX 6 9 1 0
BITMAP
08
10
00
CC
48
48
90
90
60
ENDCHAR

STARTCHAR Ucircumflex
ENCODING 219
SWIDTH 700 0
DWIDTH 6 0
BBX 6 9 1 0
BITMAP
10
28
00
CC
48
48
90
90
60
ENDCHAR

STARTCHAR Udieresis
ENCODING 220
SWIDTH 700 0
DWIDTH 6 0
BBX 6 8 1 0
BITMAP
28
00
CC
48
48
90
90
60
ENDCHAR

STARTCHAR Yacute
ENCODING 221
SWIDTH 680 0
DWIDTH 6 0
BBX 6 9 1 0
BITMAP
08
10
00
CC
48
50
20
20
70
ENDCHAR

STARTCHAR Thorn
ENCODING 222
SWIDTH 580 0
DWIDTH 5 0
BBX 5 6 0 0
BITMAP
60
30
28
70
40
E0
ENDCHAR

STARTCHAR germandbls
ENCODING 223
SWIDTH 580 0
DWIDTH 6 0
BBX 6 6 0 0
BITMAP
18
24
28
64
44
D8
ENDCHAR

STARTCHAR agrave
ENCODING 224
SWIDTH 660 0
DWIDTH 5 0
BBX 6 8 0 0
BITMAP
20
10
00
2C
58
90
B0
58
ENDCHAR

STARTCHAR aacute
ENCODING 225
SWIDTH 660 0
DWIDTH 5 0
BBX 6 8 0 0
BITMAP
08
10
00
2C
58
90
B0
58
ENDCHAR

STARTCHAR acircumflex
ENCODING 226
SWIDTH 660 0
DWIDTH 5 0
BBX 6 8 0 0
BITMAP
10
28
00
2C
58
90
B0
58
ENDCHAR

STARTCHAR atilde
ENCODING 227
SWIDTH 660 0
DWIDTH 5 0
BBX 6 8 0 0
BITMAP
14
28
00
2C
58
90
B0
58
ENDCHAR

STARTCHAR adieresis
ENCODING 228
SWIDTH 660 0
DWIDTH 5 0
BBX 6 7 0 0
BITMAP
28
00
2C
58
90
B0
58
ENDCHAR

STARTCHAR aring
ENCODING 229
SWIDTH 660 0
DWIDTH 5 0
BBX 6 8 0 0
BITMAP
10
28
10
34
58
90
B0
58
ENDCHAR

STARTCHAR ae
ENCODING 230
SWIDTH 1060 0
DWIDTH 9 0
BBX 9 5 0 0
BITMAP
2B00
5C80
9F80
B800
5700
ENDCHAR

STARTCHAR ccedilla
ENCODING 231
SWIDTH 560 0
DWIDTH 5 0
BBX 5 7 0 -2
BITMAP
38
48
80
90
60
20
40
ENDCHAR

STARTCHAR egrave
ENCODING 232
SWIDTH 580 0
DWIDTH 5 0
BBX 5 8 0 0
BITMAP
20
10
00
30
48
F8
80
70
ENDCHAR

STARTCHAR eacute
ENCODING 233
SWIDTH 580 0
DWIDTH 5 0
BBX 5 8 0 0
BITMAP
08
10
00
30
48
F8
80
70
ENDCHAR

STARTCHAR ecircumflex
ENCODING 234
SWIDTH 580 0
DWIDTH 5 0
BBX 5 8 0 0
BITMAP
10
28
00
30
48
F8
80
70
ENDCHAR

STARTCHAR edieresis
ENCODING 235
SWIDTH 580 0
DWIDTH 5 0
BBX 5 7 0 0
BITMAP
28
00
30
48
F8
80
70
ENDCHAR

STARTCHAR igrave
ENCODING 236
SWIDTH 260 0
DWIDTH 2 0
BBX 3 8 0 0
BITMAP
40
20
00
60
20
40
40
E0
ENDCHAR

STARTCHAR iacute
ENCODING 237
SWIDTH 260 0
DWIDTH 2 0
BBX 4 8 0 0
BITMAP
10
20
00
60
20
40
40
E0
ENDCHAR

STARTCHAR icircumflex
ENCODING 238
SWIDTH 260 0
DWIDTH 2 0
BBX 4 8 0 0
BITMAP
20
50
00
60
20
40
40
E0
ENDCHAR

STARTCHAR idieresis
ENCODING 239
SWIDTH 260 0
DWIDTH 2 0
BBX 4 7 0 0
BITMAP
50
00
60
20
40
40
E0
ENDCHAR

STARTCHAR eth
ENCODING 240
SWIDTH 580 0
DWIDTH 5 0
BBX 5 8 0 0
BITMAP
C8
30
50
38
48
88
90
60
ENDCHAR

STARTCHAR ntilde
ENCODING 241
SWIDTH 660 0
DWIDTH 6 0
BBX 6 8 0 0
BITMAP
14
28
00
78
24
6C
48
CC
ENDCHAR

STARTCHAR ograve
ENCODING 242
SWIDTH 580 0
DWIDTH 5 0
BBX 5 8 0 0
BITMAP
20
10
00
30
48
88
90
60
ENDCHAR

STARTCHAR oacute
ENCODING 243
SWIDTH 580 0
DWIDTH 5 0
BBX 5 8 0 0
BITMAP
08
10
00
30
48
88
90
60
ENDCHAR

STARTCHAR ocircumflex
ENCODING 244
SWIDTH 580 0
DWIDTH 5 0
BBX 5 8 0 0
BITMAP
10
28
00
30
48
88
90
60
ENDCHAR

STARTCHAR otilde
ENCODING 245
SWIDTH 580 0
DWIDTH 5 0
BBX 6 8 0 0
BITMAP
14
28
00
30
48
88
90
60
ENDCHAR

STARTCHAR odieresis
ENCODING 246
SWIDTH 580 0
DWIDTH 5 0
BBX 5 7 0 0
BITMAP
28
00
30
48
88
90
60
ENDCHAR

STARTCHAR divide
ENCODING 247
SWIDTH 660 0
DWIDTH 6 0
BBX 5 5 1 0
BITMAP
20
00
F8
00
40
ENDCHAR

STARTCHAR oslash
ENCODING 248
SWIDTH 580 0
DWIDTH 5 0
BBX 7 5 -1 0
BITMAP
1A
2C
54
68
B0
ENDCHAR

STARTCHAR ugrave
ENCODING 249
SWIDTH 640 0
DWIDTH 5 0
BBX 5 8 0 0
BITMAP
40
20
00
D8
48
D8
90
68
ENDCHAR

STARTCHAR uacute
ENCODING 250
SWIDTH 640 0
DWIDTH 5 0
BBX 5 8 0 0
BITMAP
10
20
00
D8
48
D8
90
68
ENDCHAR

STARTCHAR ucircumflex
ENCODING 251
SWIDTH 640 0
DWIDTH 5 0
BBX 5 8 0 0
BITMAP
20
50
00
D8
48
D8
90
68
ENDCHAR

STARTCHAR udieresis
ENCODING 252
SWIDTH 640 0
DWIDTH 5 0
BBX 5 7 0 0
BITMAP
50
00
D8
48
D8
90
68
ENDCHAR

STARTCHAR yacute
ENCODING 253
SWIDTH 640 0
DWIDTH 5 0
BBX 6 9 0 -1
BITMAP
08
10
00
CC
48
70
20
20
70
ENDCHAR

STARTCHAR thorn
ENCODING 254
SWIDTH 660 0
DWIDTH 5 0
BBX 6 7 -1 -1
BITMAP
60
38
24
24
78
40
C0
ENDCHAR

STARTCHAR ydieresis
ENCODING 255
SWIDTH 640 0
DWIDTH 5 0
BBX 6 8 0 -1
BITMAP
28
00
CC
48
70
20
20
70
ENDCHAR
ENDFONT
